<svg xmlns="http://www.w3.org/2000/svg" viewBox="0 0 172.62 161.57"><defs><style>.cls-1{fill:#e5941d;}.cls-2{fill:#633209;}.cls-3{fill:#aa370e;}.cls-4{fill:#4f290d;}.cls-5{fill:#ea9d0f;}.cls-6{fill:#fff;}.cls-7{fill:#a35508;}.cls-8{fill:#ba5d19;}.cls-9{fill:#f2bb20;}</style></defs><g id="Layer_2" data-name="Layer 2"><g id="OBJECTS"><path class="cls-1" d="M55.84,71.62c1.1,1.92,2.29,2.51,4.92,1.84,1.88-.47,4.82-.08,6,1.52a26.17,26.17,0,0,0,8.62-7.28,22,22,0,0,0,1.89-23.49c-.73-1.36-1.64-2.75-2.52-4.09-2.58-3.93-5.24-8-4.26-12.48.68-3.05,2.93-5.48,5.1-7.83a33.54,33.54,0,0,0,3.34-4,14,14,0,0,0,1.84-4c-1.22-1.69-4.4-1.48-6.51-1.82C72,9.69,69.24,7.84,71,6.36s2-2.95.17-4.35,0-2.33-2.8-1.91-9.92.51-15,1.24-8.22,3.4-11.19,2.74-4.83.66-6.1-1-2.46-.22-3.57,1S31,6.66,26,8.36s-.68,5.68-4.5,7.9-6,1.84-8.56,4.79-3.39,2.22-5.51,5.69S2.68,30.8,2.85,33.6s1.85,7.31,0,10.56S-.71,48.73.31,50.36s-.26,4.87,2,5.9a9.4,9.4,0,0,1,4.58,4.06c.51,1.26.31,3.12,2.46,4.73,1.78,1.33,5.68,3.47,8.73,5.9s4.75,3.25,9.41,1.77,8.06.82,10.09.08,6.7-3.47,11.79-3.54S54.74,69.7,55.84,71.62Z"/><path class="cls-2" d="M114.68,153.05a16.16,16.16,0,0,0-.27-2.41,20.09,20.09,0,0,0-9.68-13.14,49.55,49.55,0,0,0-4.49-2.26c-3.25-1.51-6.61-3.06-8.77-5.77-2.59-3.26-3.12-7.77-1.58-13.41.38-1.37.83-2.74,1.28-4.06a33.51,33.51,0,0,0,2.08-8.78c.33-7.18-4.93-14.46-12.51-17.31A24.31,24.31,0,0,0,65,85.76a2.06,2.06,0,0,0,.17.33c1.1,1.69,7.12,7.3,8.56,10.7s2.63,4.94,2.54,7.09,1.7,3.39.94,5.46-5,6-4.75,12.18,6.44,9.08,6.61,13.65.93,8.27,2.71,9.82,6.53,8,6.11,11.22,3.24,5.91,8.53,4,8.51.51,11.56-1.55A85.86,85.86,0,0,0,114.68,153.05Z"/><path class="cls-3" d="M169.54,56c-4.5,1.55-10.69,4.58-14.67,3s-1.7-3.25-3.48-5.17-9.24-4.94-10.26-7.75-1.78-3.91-3.64-5.09-2-2.81-2.12-5-5.17-4.58-5.6-6.42-9.41-11.15-8.31-12.11,4.07,3.91,5.18,1.4-1.11-6.42-2.8-6-2.29.51-4.67-.45-5,2.07-7.29,1.48c-.82-.21-2.44-.41-4.3-.67a34.17,34.17,0,0,0-4.76,11.31,34.33,34.33,0,0,0,7.34,28.7,84.58,84.58,0,0,0,10.45,10c6,5.07,12.1,10.31,14.91,17.26,2.72,6.73,2.16,14.85-1.66,24.14-1.53,3.73-3.44,7.39-5.29,10.93-1.92,3.69-3.91,7.51-5.46,11.39-3.18,7.93-3.86,14.94-2.06,20.89a6.15,6.15,0,0,0,2-4.08c.17-2,.85-2.58,3.91-3.69s3.9-2.88,3.22-6.57-1.11-4.94,2-6.79,11.87-4.72,12.38-8-.09-6.93.76-8.93-1.44-2.95-2.12-6,1-3.32-.09-5,1.45-7.45,4.33-10,10.85-10,15.09-12.7,8.27-11.59,9.16-14.69S174,54.42,169.54,56Z"/><path class="cls-4" d="M121.66,126.41a126.58,126.58,0,0,1,5.52-11.5c1.83-3.51,3.72-7.15,5.24-10.83,3.69-9,4.25-16.81,1.65-23.25-2.69-6.65-8.44-11.55-14.53-16.74a85.18,85.18,0,0,1-10.62-10.15,35.53,35.53,0,0,1-7.61-29.72A35.21,35.21,0,0,1,106,12.91c-2.94-.48-6-1.17-7.32-2.41-2.38-2.29-7.38-.22-7.21,2.14s-.85,3.47-2.54,2.73c-1.41-.61-5.23-.77-7-2.06a14.85,14.85,0,0,1-1.63,3.2,35.8,35.8,0,0,1-3.46,4.14C74.61,23,72.58,25.17,72,27.89c-.88,4,1.53,7.68,4.08,11.57.9,1.36,1.82,2.77,2.58,4.19a23.25,23.25,0,0,1-2,24.78,27.78,27.78,0,0,1-9.43,7.85,3.2,3.2,0,0,1-.1,1.17c-.68,2.62-2,5.08-2.22,6.88a25.74,25.74,0,0,1,16.45.36c8.26,3.1,13.79,10.75,13.43,18.58a33.9,33.9,0,0,1-2.14,9.1c-.44,1.31-.89,2.67-1.26,4-1.44,5.25-1,9.41,1.35,12.34,2,2.44,5,3.85,8.23,5.35,1.55.72,3.16,1.46,4.63,2.33a21.49,21.49,0,0,1,10.33,14c.09.45.15.9.2,1.35a44.85,44.85,0,0,1,3.65-3l0,0C117.64,142.39,118.26,134.89,121.66,126.41Z"/><path class="cls-5" d="M94.18,19.77c.68-1.32,1.39-2.61,2-3.95-.92,1.21-1.76,2.45-2.64,3.66S91.88,22,91.06,23.2c-1.44,2.17-2.83,4.37-4.2,6.58-1.5-2.22-3-4.42-4.58-6.6-.89-1.24-1.81-2.48-2.73-3.71l-.8-1-.35.4.54.94c.78,1.3,1.56,2.61,2.37,3.89,1.6,2.59,3.27,5.14,5,7.68a.65.65,0,0,0,.28.23.75.75,0,0,0,1-.26c1.54-2.54,3.07-5.08,4.52-7.66Q93.14,21.73,94.18,19.77Z"/><path class="cls-5" d="M96.45,15.82c.71,1.34,1.5,2.64,2.25,4s1.56,2.61,2.37,3.89c.08.15.18.29.27.43.1-.47.21-.93.34-1.4-.79-1.08-1.58-2.16-2.38-3.23C98.35,18.26,97.44,17,96.45,15.82Z"/><path class="cls-5" d="M100.71,34q-1.77-2.78-3.6-5.52a.67.67,0,0,0-.28-.24.77.77,0,0,0-1,.26c-1.54,2.54-3.07,5.09-4.52,7.67-.73,1.29-1.44,2.58-2.15,3.89s-1.38,2.61-2,3.94c.92-1.2,1.76-2.44,2.64-3.66s1.69-2.47,2.51-3.72c1.44-2.17,2.82-4.37,4.19-6.57,1.48,2.17,3,4.33,4.51,6.47C100.89,35.63,100.78,34.79,100.71,34Z"/><path class="cls-5" d="M82.23,36.1c-1.61-2.58-3.28-5.13-5-7.67a.67.67,0,0,0-.28-.24.77.77,0,0,0-1,.26c-1.09,1.8-2.16,3.6-3.22,5.42.19.42.39.84.61,1.26,1.11-1.7,2.19-3.41,3.26-5.13,1.5,2.21,3,4.42,4.59,6.59.89,1.25,1.81,2.48,2.73,3.71s1.86,2.45,2.85,3.65c-.71-1.34-1.5-2.64-2.24-4S83,37.39,82.23,36.1Z"/><path class="cls-6" d="M96.45,22.58a.85.85,0,1,0,0,1.7A.85.85,0,1,0,96.45,22.58Z"/><path class="cls-6" d="M76.45,22.58a.85.85,0,1,0,0,1.7A.85.85,0,1,0,76.45,22.58Z"/><path class="cls-6" d="M86.45,35a.85.85,0,1,0,0,1.69A.85.85,0,1,0,86.45,35Z"/><path class="cls-7" d="M94.18,47.89c.68-1.31,1.39-2.61,2-3.94-.92,1.2-1.76,2.44-2.64,3.66s-1.69,2.47-2.51,3.72c-1.44,2.17-2.83,4.37-4.2,6.57-1.5-2.21-3-4.42-4.58-6.59-.52-.72-1-1.43-1.58-2.14a22.94,22.94,0,0,1,.43,2.34l.18.29c1.6,2.58,3.27,5.13,5,7.67a.67.67,0,0,0,.28.24.77.77,0,0,0,1-.26c1.54-2.54,3.07-5.09,4.52-7.67C92.77,50.49,93.48,49.2,94.18,47.89Z"/><path class="cls-7" d="M109,54.07c-.81,1.27-1.62,2.55-2.41,3.83-1.5-2.21-3-4.42-4.59-6.59-.89-1.25-1.81-2.48-2.73-3.71S97.44,45.15,96.45,44c.71,1.34,1.5,2.64,2.25,4s1.56,2.6,2.37,3.89c1.6,2.58,3.27,5.13,5,7.67a.67.67,0,0,0,.28.24.77.77,0,0,0,1-.26q1.33-2.19,2.62-4.38C109.6,54.74,109.31,54.41,109,54.07Z"/><path class="cls-7" d="M102.08,64.23c-1.6-2.59-3.28-5.14-5-7.68a.65.65,0,0,0-.28-.23.75.75,0,0,0-1,.26c-1.54,2.54-3.07,5.08-4.52,7.66-.73,1.29-1.44,2.59-2.15,3.89s-1.38,2.61-2,4c.92-1.21,1.76-2.45,2.64-3.66S91.51,66,92.33,64.7c1.44-2.17,2.82-4.37,4.19-6.58,1.5,2.22,3,4.42,4.59,6.6.89,1.24,1.81,2.48,2.73,3.71s1.86,2.45,2.85,3.65c-.71-1.34-1.5-2.64-2.24-4S102.88,65.51,102.08,64.23Z"/><path class="cls-7" d="M82.23,64.23c-.63-1-1.28-2-1.93-3-.15.5-.31,1-.49,1.47l1.45,2.06C82.15,66,83.07,67.2,84,68.43s1.86,2.45,2.85,3.65c-.71-1.34-1.5-2.64-2.24-4S83,65.51,82.23,64.23Z"/><path class="cls-7" d="M114.08,59.3c-1,1.64-2,3.29-2.88,4.94q-1.1,1.94-2.14,3.89c-.68,1.32-1.39,2.61-2,4,.92-1.21,1.76-2.45,2.64-3.66s1.69-2.47,2.51-3.72c1-1.49,1.94-3,2.89-4.5Z"/><path class="cls-7" d="M123.69,68.43c1,1.21,1.86,2.45,2.85,3.65-.66-1.26-1.4-2.49-2.11-3.73-.75-.68-1.51-1.35-2.29-2Z"/><path class="cls-6" d="M96.45,52.4a.85.85,0,1,0,0-1.69A.85.85,0,1,0,96.45,52.4Z"/><path class="cls-6" d="M86.45,63.07a.85.85,0,1,0,0,1.69A.85.85,0,1,0,86.45,63.07Z"/><path class="cls-6" d="M106.69,63.07a.85.85,0,1,0,0,1.69A.85.85,0,1,0,106.69,63.07Z"/><path class="cls-6" d="M96.45,78.83a.85.85,0,1,0,0,1.7A.85.85,0,1,0,96.45,78.83Z"/><path class="cls-6" d="M76.45,78.83a.85.85,0,1,0,0,1.7A.85.85,0,1,0,76.45,78.83Z"/><path class="cls-6" d="M116,78.83a.85.85,0,1,0,0,1.7A.85.85,0,1,0,116,78.83Z"/><path class="cls-6" d="M106.69,91.2a.85.85,0,1,0,0,1.69A.85.85,0,1,0,106.69,91.2Z"/><path class="cls-5" d="M76.45,72.08c-.92,1.2-1.75,2.44-2.63,3.66s-1.7,2.46-2.51,3.71-1.74,2.67-2.59,4c.54-.08,1.08-.15,1.62-.19.66-1.12,1.31-2.24,1.94-3.36.74-1.29,1.45-2.59,2.15-3.89S75.82,73.41,76.45,72.08Z"/><path class="cls-5" d="M65.17,83.19a8.08,8.08,0,0,0-.27,1.14l.88-.25Z"/><text/><path class="cls-5" d="M101.07,79.92c1.6,2.59,3.27,5.14,5,7.68a.65.65,0,0,0,.28.23.76.76,0,0,0,1-.25c1.54-2.55,3.07-5.09,4.52-7.67.74-1.29,1.44-2.59,2.15-3.89s1.38-2.61,2-3.94c-.92,1.2-1.76,2.44-2.63,3.66s-1.7,2.46-2.52,3.71c-1.44,2.17-2.82,4.37-4.19,6.58-1.5-2.22-3-4.42-4.59-6.6-.89-1.24-1.81-2.48-2.73-3.71s-1.86-2.45-2.85-3.64c.71,1.33,1.5,2.63,2.25,4S100.26,78.64,101.07,79.92Z"/><path class="cls-5" d="M104.45,96.24q-1.17-2-2.37-3.89c-1.6-2.58-3.28-5.13-5-7.67a.67.67,0,0,0-.28-.24.77.77,0,0,0-1,.26c-1.53,2.53-3.05,5.06-4.49,7.62l.64,1c.1-.15.21-.3.31-.46,1.44-2.17,2.82-4.37,4.19-6.57,1.5,2.21,3,4.42,4.59,6.59.89,1.25,1.81,2.48,2.73,3.71s1.86,2.45,2.85,3.65C106,98.86,105.19,97.56,104.45,96.24Z"/><path class="cls-5" d="M132.64,77.93c-.16-.28-.32-.55-.49-.82-.53.78-1.07,1.56-1.58,2.34-1.44,2.17-2.83,4.37-4.2,6.58-1.5-2.22-3-4.42-4.59-6.6q-1.34-1.86-2.72-3.71c-1-1.21-1.87-2.45-2.86-3.64.71,1.33,1.5,2.63,2.25,4s1.56,2.61,2.37,3.89c1.6,2.59,3.27,5.14,5,7.68a.74.74,0,0,0,.29.23.77.77,0,0,0,1-.25c1.54-2.55,3.06-5.09,4.51-7.67C131.92,79.25,132.27,78.59,132.64,77.93Z"/><path class="cls-5" d="M135.22,84.71c-1.54,2.54-3.06,5.08-4.51,7.66-.73,1.29-1.44,2.58-2.14,3.89s-1.39,2.61-2,3.94c.92-1.2,1.76-2.44,2.64-3.66s1.69-2.47,2.51-3.72c1.32-2,2.59-4,3.84-6A20.83,20.83,0,0,0,135.22,84.71Z"/><path class="cls-5" d="M121.59,92.35c-1.61-2.58-3.28-5.13-5-7.67a.67.67,0,0,0-.28-.24.77.77,0,0,0-1,.26c-1.54,2.54-3.07,5.09-4.52,7.67-.73,1.29-1.44,2.58-2.15,3.89s-1.38,2.61-2,3.94c.92-1.2,1.76-2.44,2.64-3.66s1.69-2.47,2.51-3.72c1.44-2.17,2.82-4.37,4.19-6.57,1.5,2.21,3,4.42,4.59,6.59.89,1.25,1.81,2.48,2.73,3.71s1.86,2.45,2.85,3.65c-.71-1.34-1.5-2.64-2.24-4S122.39,93.64,121.59,92.35Z"/><path class="cls-6" d="M125.81,91.2a.85.85,0,1,0,0,1.69A.85.85,0,1,0,125.81,91.2Z"/><path class="cls-6" d="M96.45,107a.85.85,0,1,0,0,1.69A.85.85,0,1,0,96.45,107Z"/><path class="cls-6" d="M116,107a.85.85,0,1,0,0,1.69A.85.85,0,1,0,116,107Z"/><path class="cls-6" d="M106.69,119.32a.85.85,0,1,0,0,1.69A.85.85,0,1,0,106.69,119.32Z"/><path class="cls-7" d="M94.78,102.16q0,.42,0,.84c.49-.93,1-1.86,1.43-2.8C95.71,100.84,95.25,101.5,94.78,102.16Z"/><text/><path class="cls-7" d="M104.45,124.37c-.78-1.3-1.57-2.61-2.37-3.89-1.6-2.59-3.28-5.14-5-7.68a.65.65,0,0,0-.28-.23.75.75,0,0,0-1,.26c-1.54,2.54-3.07,5.08-4.52,7.66-.27.47-.52,1-.78,1.42a12.46,12.46,0,0,0,.08,1.52c.56-.82,1.13-1.65,1.68-2.48,1.44-2.17,2.82-4.37,4.19-6.58,1.5,2.22,3,4.42,4.59,6.6.89,1.24,1.81,2.48,2.73,3.71s1.86,2.45,2.85,3.65C106,127,105.19,125.69,104.45,124.37Z"/><path class="cls-7" d="M131.48,106.23c-.3.45-.61.89-.91,1.35-1.44,2.17-2.83,4.37-4.2,6.57-1.5-2.21-3-4.42-4.59-6.59-.89-1.25-1.8-2.48-2.72-3.71s-1.87-2.45-2.86-3.65c.71,1.34,1.5,2.64,2.25,4s1.56,2.6,2.37,3.89c1.6,2.58,3.27,5.13,5,7.67a.76.76,0,0,0,.29.24.78.78,0,0,0,.54,0l.57-1.09C128.65,112.08,130.16,109.17,131.48,106.23Z"/><path class="cls-7" d="M123.13,123c-.51-.84-1-1.69-1.54-2.53-1.61-2.59-3.28-5.14-5-7.68a.65.65,0,0,0-.28-.23.75.75,0,0,0-1,.26c-1.54,2.54-3.07,5.08-4.52,7.66-.73,1.29-1.44,2.59-2.15,3.89s-1.38,2.61-2,4c.92-1.21,1.76-2.45,2.64-3.66s1.69-2.47,2.51-3.72c1.44-2.17,2.82-4.37,4.19-6.58,1.5,2.22,3,4.42,4.59,6.6.7,1,1.41,1.93,2.13,2.89C122.87,123.58,123,123.3,123.13,123Z"/><path class="cls-6" d="M116,135.08a.85.85,0,1,0,0,1.7A.85.85,0,1,0,116,135.08Z"/><path class="cls-5" d="M96.21,128.33c-.56.72-1.08,1.46-1.61,2.2l.35.26C95.38,130,95.81,129.16,96.21,128.33Z"/><path class="cls-5" d="M99.3,132c-1-1.21-1.86-2.45-2.85-3.64.71,1.33,1.5,2.63,2.25,3.95l.6,1,1.47.69C100.28,133.31,99.8,132.64,99.3,132Z"/><path class="cls-5" d="M113.33,132c-.85,1.23-1.7,2.46-2.52,3.71-.66,1-1.31,2-2,3,.33.28.65.56,1,.86.67-1.14,1.33-2.28,2-3.43s1.44-2.59,2.15-3.89,1.38-2.61,2-3.94C115,129.53,114.2,130.77,113.33,132Z"/><path class="cls-5" d="M119.06,132c-1-1.21-1.87-2.45-2.86-3.64.71,1.33,1.5,2.63,2.25,3.95l.91,1.49q.11-.53.24-1.05Z"/><path class="cls-5" d="M116,142.5q1.65,2.42,3.33,4.81a24.71,24.71,0,0,1-.61-3.15c-.7-1.08-1.41-2.16-2.13-3.23a.67.67,0,0,0-.28-.24.77.77,0,0,0-1,.26c-.64,1.06-1.28,2.12-1.91,3.19.25.42.5.85.72,1.29C114.81,144.46,115.42,143.48,116,142.5Z"/><path class="cls-1" d="M73.56,85.38l-3.8-.11h-.31l0,.29c-.09,1.23-.21,2.47-.25,3.7l0,.32h.35c1.75.08,3.5.18,5.25.22H75l0-.2c.11-.68.24-1.36.33-2l0-.16h-.17l-2.41-.2v.08c.73.14,1.46.26,2.19.38-.14.56-.27,1.12-.4,1.67-1.56-.14-3.12-.23-4.67-.34.08-1,.12-2.1.18-3.14l3.47-.1c1.21,0,2.43,0,3.65-.07,0,.94-.11,1.88-.16,2.82l-.22,2.72c-2.5-.18-5-.32-7.49-.45l.63.72c2.36.08,4.71.15,7.07.11H75.31l2.1-.14V88.52c0-1,0-2,.07-3v0h-.13C76.08,85.43,74.82,85.43,73.56,85.38Z"/><path class="cls-1" d="M67.31,88.59l.93,1Q68.14,87.3,68,85l-.79.17C67.21,86.31,67.26,87.45,67.31,88.59Z"/><path class="cls-8" d="M88.75,91.45c-2.7-.19-5.41-.34-8.11-.48-.07-1.73-.16-3.46-.28-5.19l-.84-.28c.07,2,.15,3.89.28,5.84l0,.34h.38c3,.1,6,.21,9,.25C89,91.77,88.89,91.61,88.75,91.45Z"/><path class="cls-8" d="M87.35,90.05h0c-.18-.17-.36-.34-.55-.5-1.46-.13-2.93-.23-4.4-.33.07-.83.11-1.67.15-2.5-.23-.11-.46-.23-.69-.33-.08,1-.17,2.07-.2,3.1v.32H82C83.81,89.91,85.58,90,87.35,90.05Z"/><path class="cls-8" d="M73.56,95.56H73l.22.38h.32c1.21,0,2.43,0,3.65-.06,0,.94-.11,1.88-.16,2.82l-.22,2.72-1.17-.07a4.58,4.58,0,0,1,.15.49A2.16,2.16,0,0,0,77,101.6H75.31l2.1,0v-3c0-1,0-2,.07-2.94V95.6h-.13C76.08,95.61,74.82,95.61,73.56,95.56Z"/><path class="cls-8" d="M74.19,97.82l.09.21,1,.17-.3,1.23c.13.26.24.51.35.75h0c.11-.69.24-1.38.33-2.07l0-.16-.17,0Z"/><path class="cls-8" d="M77.63,94.18c-1.68,0-3.37,0-5.06,0h-.43c.12.16.24.31.34.46h.12c1.68-.12,3.36-.26,5-.4Z"/><path class="cls-1" d="M86.15,95.56l-3.79-.11h-.31l0,.29c-.08,1.23-.21,2.47-.25,3.7v.31l.34,0c1.75.08,3.5.18,5.26.22h.24l0-.19c.11-.68.23-1.36.33-2l0-.16-.17,0c-.8-.06-1.61-.14-2.41-.19v.07c.73.14,1.46.26,2.19.39-.14.56-.27,1.12-.41,1.67-1.55-.14-3.11-.24-4.67-.35.09-1,.13-2.09.18-3.13l3.47-.11c1.22,0,2.44,0,3.66-.06,0,.94-.11,1.88-.17,2.82l-.22,2.72c-2.89-.21-5.79-.37-8.69-.52-.08-2.08-.2-4.17-.35-6.25,1.53-.09,3.06-.17,4.59-.29s3.32-.25,5-.39v-.07c-1.67,0-3.33,0-5,0S81.61,94,80,94h-.38v.35c.06,2.3.17,4.6.31,6.9l0,.34.38,0c3.11.1,6.22.21,9.34,0H88.31l2.1,0v-3a6.21,6.21,0,0,1-.34-2.94V95.6h-.14C88.68,95.61,87.42,95.61,86.15,95.56Z"/><path class="cls-8" d="M92.13,101.64l0,.35h.39l.71,0c0-.25,0-.49-.06-.74H93c0-.66-.06-1.33-.09-2a16.71,16.71,0,0,0-1-3C91.94,98.07,92,99.86,92.13,101.64Z"/><path class="cls-1" d="M76.56,105.8a2.44,2.44,0,0,0,.1.24h.55c0,.66-.07,1.32-.11,2a.41.41,0,0,1,0,.11c0,.24,0,.49,0,.73l-.22,2.72-1.49-.1L75,112a3.35,3.35,0,0,0,2-.38H75.31l2.1.22v-2.95c0-1,0-2,.07-2.94v-.33h-.13A1.19,1.19,0,0,1,76.56,105.8Z"/><path class="cls-1" d="M77.63,104.49H76.3l0,.18,1.31-.11Z"/><path class="cls-8" d="M86.15,105.74l-3.79-.11h-.31l0,.28c-.08,1.24-.21,2.47-.25,3.71v.31l.34,0c1.75.07,3.5.18,5.26.22h.24l0-.19c.11-.68.23-1.36.33-2l0-.17h-.17c-.8-.06-1.61-.14-2.41-.19v.07c.73.14,1.46.26,2.19.39-.14.55-.27,1.11-.41,1.67-1.55-.14-3.11-.24-4.67-.35.09-1,.13-2.09.18-3.14l3.47-.1c1.22,0,2.44,0,3.66-.06,0,.94-.11,1.88-.17,2.82l-.22,2.72c-2.89-.22-5.79-.37-8.69-.52q-.12-3.14-.35-6.25c1.53-.09,3.06-.17,4.59-.29s3.32-.25,5-.39v-.07c-1.67,0-3.33,0-5,0s-3.33.06-5,.09h-.38v.34c.06,2.31.17,4.61.31,6.91l0,.34h.38a58.3,58.3,0,0,0,9.34-.17H88.31l2.1.22v-2.95a6.21,6.21,0,0,1-.34-2.94v-.33h-.14A20,20,0,0,1,86.15,105.74Z"/><path class="cls-1" d="M93.13,104.58l-.94,0h-.38V105c0,1.5.1,3,.18,4.51.27-.88.52-1.76.72-2.65,0-.52-.06-1-.1-1.56l.41,0C93.07,105,93.1,104.79,93.13,104.58Z"/><path class="cls-8" d="M73.8,116.5l-.55,0-.13.4h.68c1.23-.05,2.46-.06,3.7-.07,0,1-.11,1.9-.17,2.86l-.22,2.75q-2.3-.16-4.59-.3c0,.22,0,.44.08.65a25,25,0,0,0,4.73-.16H75.57l1.84.06v-3a8.34,8.34,0,0,1,1-3v-.09h-.77C76.36,116.55,75.08,116.55,73.8,116.5Z"/><path class="cls-8" d="M72.47,120.31c0,.19,0,.38,0,.57.85,0,1.71.07,2.56.09h.24l0-.2c.11-.69.24-1.38.33-2.07l0-.16h-.17c-.82-.07-1.63-.15-2.44-.2l0,.07c.74.15,1.48.27,2.22.4-.14.56-.27,1.12-.41,1.69Z"/><path class="cls-8" d="M77.63,114.79H74l-.18.38,3.85-.31Z"/><path class="cls-1" d="M89,122.39c-2.8-.21-5.6-.36-8.4-.51-.08-2.11-.2-4.21-.35-6.32,1.54-.1,3.1-.17,4.64-.29s3.36-.26,5-.4v-.08c-1.69,0-3.38,0-5.06,0s-3.37.06-5.06.09h-.38v.35q.09,3.49.32,7l0,.35h.38c3,.1,5.91.2,8.86.24C89.05,122.7,89.05,122.54,89,122.39Z"/><path class="cls-1" d="M86.13,116.5l-3.84-.11H82l0,.29c-.09,1.25-.21,2.49-.25,3.75v.31l.34,0c1.78.08,3.55.18,5.32.22h.25l0-.2c.11-.69.23-1.38.33-2.07l0-.16h-.17c-.81-.07-1.62-.15-2.44-.2v.07c.74.15,1.48.27,2.22.4-.15.56-.28,1.12-.41,1.69-1.58-.14-3.16-.24-4.73-.35.08-1.06.13-2.12.18-3.18l3.51-.1c1.19-.05,2.38-.06,3.57-.07l.06-.24C88.55,116.55,87.34,116.54,86.13,116.5Z"/><path class="cls-1" d="M74.06,126.54l.22.34c1,0,2,0,3,0,0,1-.11,1.9-.17,2.86l-.07.91.36.51,0-1.41c0-1,.07-2,.13-3v-.11h-.13C76.3,126.58,75.18,126.57,74.06,126.54Z"/><path class="cls-1" d="M77.63,125.1c-1.43,0-2.86,0-4.29,0l.18.39c1.37-.1,2.75-.21,4.12-.33Z"/><path class="cls-8" d="M88.28,132.6l2.13.58v-3a5.6,5.6,0,0,1-.35-2.78l-.3-.33c-1.22,0-2.44,0-3.66-.06l-3.84-.12h-.32l0,.28c-.09,1.25-.21,2.5-.26,3.76v.31l.35,0c1.77.07,3.54.18,5.32.22h.25l0-.19c.1-.69.23-1.38.33-2.07l0-.16-.17,0c-.82-.06-1.63-.14-2.44-.19l0,.07c.74.15,1.48.27,2.22.39-.14.57-.27,1.13-.41,1.7-1.57-.14-3.15-.24-4.73-.35.09-1.06.13-2.12.19-3.18l3.51-.11c1.23,0,2.47,0,3.7-.06,0,1-.11,1.9-.17,2.86l-.22,2.75c-2.93-.22-5.87-.37-8.8-.53q-.12-3.16-.36-6.32c1.55-.1,3.1-.18,4.65-.3s3-.22,4.48-.35l0-.12c-1.49,0-3,0-4.47,0-1.69,0-3.37.06-5.06.09h-.38v.35q.09,3.49.31,7l0,.34.38,0a35,35,0,0,0,9.46-.54Z"/><path class="cls-1" d="M94.63,132.28,93,132.19c0-.41,0-.82,0-1.23-.33-.29-.63-.59-.93-.91.05.84.09,1.67.14,2.51l0,.34h.39l3.29.11C95.42,132.78,95,132.54,94.63,132.28Z"/><path class="cls-1" d="M89.66,142.6H88.32l1.09.67v-3a14.51,14.51,0,0,0,1-3v-.7H90a8.38,8.38,0,0,1-3.84.51L82.29,137H82l0,.29c-.09,1.25-.21,2.5-.25,3.75v.31l.34,0c1.78.08,3.55.18,5.32.22h.25l0-.2c.11-.69.23-1.37.33-2.07l0-.16h-.17c-.81-.07-1.62-.15-2.44-.2V139c.74.15,1.48.27,2.22.4-.15.56-.28,1.12-.41,1.69-1.58-.14-3.16-.24-4.73-.35.08-1.06.13-2.12.18-3.18l3.51-.1c1.24,0,2.47-.06,3.7-.07,0,1-.11,1.9-.16,2.86L89.44,143c-2.93-.22-5.86-.37-8.8-.53-.08-2.11-.2-4.21-.35-6.32,1.54-.09,3.1-.17,4.64-.29s3.36-.26,5-.4v-.08c-1.69,0-3.38,0-5.06,0s-3.37.06-5.06.09h-.38v.35c0,1.57.11,3.13.19,4.7a12.6,12.6,0,0,0,.86,2.66A30,30,0,0,0,89.66,142.6Z"/><path class="cls-8" d="M101,135.59l-.4-.19c-1.12,0-2.23,0-3.35,0-1.68,0-3.37.06-5,.09h-.38v.35q.09,3.49.31,7l0,.35h.39a32.14,32.14,0,0,0,9.46-.62h-.94l2.35.67v-3a3.39,3.39,0,0,1-1-3v-.7h-.1a8.38,8.38,0,0,1-3.84.51L94.63,137h-.32l0,.29c-.09,1.25-.21,2.5-.26,3.75v.31l.35,0c1.77.08,3.54.18,5.32.22h.24l0-.2c.11-.69.24-1.37.33-2.07l0-.16h-.17c-.82-.07-1.63-.15-2.44-.2l0,.07c.74.15,1.48.27,2.22.4-.14.56-.27,1.12-.41,1.69-1.57-.14-3.15-.24-4.73-.35.09-1.06.13-2.12.18-3.18l3.52-.1c1.23,0,2.46-.06,3.7-.07,0,1-.11,1.9-.17,2.86l-.22,2.75c-2.93-.22-5.87-.37-8.81-.53-.08-2.11-.2-4.21-.35-6.32,1.55-.09,3.1-.17,4.65-.29Z"/><path class="cls-8" d="M88.32,154.6l1.09-1v-3a14.31,14.31,0,0,0,1-3v1H90a5.35,5.35,0,0,0-3.84-1.19l-2.28-.06.37.49,1.91-.06c1.24-.05,2.47-.05,3.7-.07,0,1-.11,1.91-.16,2.86l-.23,2.76c-.71-.06-1.42-.1-2.14-.14.07.18.14.36.2.54a2.53,2.53,0,0,1,2.16.87Z"/><path class="cls-8" d="M86.44,151.36c.09.17.18.33.26.5l.65,0h.25l0-.19c.11-.69.23-1.38.33-2.07l0-.17h-.17c-.81-.06-1.62-.14-2.44-.19v.07l2.22.39c-.15.56-.28,1.13-.41,1.69Z"/><path class="cls-8" d="M84.93,146.18c1.68-.11,3.36-.25,5-.4v-.07c-1.69,0-3.38,0-5.06,0l-2.36,0,.48.55Z"/><path class="cls-1" d="M98.6,147.41l-3.84-.11h-.32l0,.29c-.09,1.25-.21,2.5-.25,3.75l0,.32h.35c1.78.08,3.55.19,5.32.23h.25l0-.19c.11-.69.23-1.38.33-2.07l0-.17h-.17c-.81-.06-1.63-.14-2.44-.19v.07c.73.14,1.48.26,2.22.39-.15.56-.28,1.13-.42,1.69-1.57-.14-3.15-.24-4.72-.35.08-1.06.12-2.12.18-3.18l3.51-.1c1.23-.05,2.47-.05,3.7-.07,0,1-.11,1.91-.16,2.86l-.23,2.76c-2.93-.22-5.87-.38-8.8-.53q-.12-3.17-.36-6.33c1.55-.09,3.1-.17,4.65-.29s3.36-.25,5-.4v-.07c-1.69,0-3.38,0-5.06,0s-3.37.06-5.06.1h-.38v.35c.06,2.34.16,4.67.32,7l0,.34h.38a40.69,40.69,0,0,1,9.46,1.08h-1.07l2.35-1v-3a4.35,4.35,0,0,1-1-3v1h0A5.35,5.35,0,0,0,98.6,147.41Z"/><path class="cls-8" d="M114.68,153.05c0-.54-.08-1.07-.15-1.59l-.15,1.85Z"/><path class="cls-8" d="M114.37,153.33c-2.93-.22-5.86-.38-8.79-.53q-.12-3.17-.36-6.33c1.55-.09,3.1-.17,4.65-.29,1-.06,1.94-.14,2.92-.22-.05-.09-.1-.17-.14-.26l-2.8,0c-1.69,0-3.37.06-5.06.1h-.38v.35q.09,3.51.31,7l0,.34h.38c2.91.1,5.82.2,8.73.24Z"/><path class="cls-8" d="M107.23,147.3h-.32l0,.29c-.09,1.25-.21,2.5-.26,3.75v.32H107c1.77.08,3.55.19,5.32.23h.25l0-.19c.11-.69.23-1.38.33-2.07l0-.17h-.17c-.82-.06-1.63-.14-2.44-.19v.07c.73.14,1.47.26,2.21.39-.14.56-.27,1.13-.41,1.69-1.57-.14-3.15-.24-4.73-.35.09-1.06.13-2.12.19-3.18l3.51-.1c.83,0,1.67,0,2.51-.05,0-.09-.08-.18-.11-.27-.8,0-1.6,0-2.4-.05Z"/><path class="cls-1" d="M105.22,156.78c1.55-.09,3.1-.17,4.65-.29l1-.07c.15-.14.31-.27.47-.4h-1.45c-1.69,0-3.37.06-5.06.09h-.38v.35c0,1,.06,2,.11,3.06q.43,0,.87,0Q105.32,158.14,105.22,156.78Z"/><path class="cls-1" d="M106.91,157.6l0,.29c0,.45-.07.9-.1,1.35a4.63,4.63,0,0,0,.73-.32c0-.24,0-.49,0-.73l1.11,0,.63-.49-2.07-.06Z"/><path class="cls-1" d="M110.75,142.78l-5.17-.29c-.06-1.54-.15-3.08-.25-4.62l-.6-.37-.26-.15c.06,1.84.15,3.68.26,5.51l0,.35h.38c2,.07,4,.13,6.08.18C111.07,143.19,110.91,143,110.75,142.78Z"/><path class="cls-1" d="M109.66,141.48c-.19-.2-.38-.41-.58-.61l-1.71-.11q.06-.67.09-1.35c-.22-.19-.46-.37-.69-.54-.06.72-.11,1.44-.14,2.16v.31l.35,0Z"/><path class="cls-1" d="M90,156H87.9c0,.06,0,.14,0,.2v0l2.08-.17Z"/><path class="cls-1" d="M90,160.92c0-.74,0-1.47.09-2.21v-.11H90l-2,0c0,.09.06.19.1.28l1.71,0c0,.63-.06,1.27-.1,1.91Z"/><path class="cls-8" d="M97.71,159.56l0,.07.43.08.41-.08Z"/><path class="cls-8" d="M98.47,158.53l-3.84-.12h-.32l0,.29c-.07,1-.15,1.92-.21,2.88l.74-.12c.05-.82.09-1.64.13-2.45l3.52-.11c1.23,0,2.46,0,3.7-.06,0,.47,0,.94-.08,1.41h.28c0-.51,0-1,.07-1.54v-.11h-.13C101,158.58,99.75,158.57,98.47,158.53Z"/><path class="cls-8" d="M92.87,160.83c-.07-1.35-.15-2.7-.25-4.05,1.55-.09,3.1-.17,4.65-.29s3.36-.26,5-.4V156c-1.68,0-3.37,0-5.06,0s-3.37.06-5,.09h-.38v.35c0,1.42.09,2.85.16,4.28A8.44,8.44,0,0,0,92.87,160.83Z"/><path class="cls-7" d="M76,66.79c.18-.27.36-.54.52-.81l-7.63-7.82-.61-.62-.63.62-8.39,8.18-8.44-8.13-.57-.55-.55.55-8.45,8.51-8.8-8.22-.19-.17-.18.17-8.8,8.22-8.46-8.51-.56-.57-.56.57L8.18,63.83a5.05,5.05,0,0,0,.66.76l5.41-5,8.63,8.07.39.36.36-.36L32.25,59l8.63,8.69.36.36.38-.36,8.62-8.05,8.43,8.22.58.57.6-.57,8.43-8.12Z"/><path class="cls-3" d="M72.63,71.6c.12-1,.36-2,.36-2l-10.94,2H54.94l.46-2,6.65,2Z"/><path class="cls-3" d="M40,69.6H18.34s-.61.69-.91.69c.24.18.71-.69.71-.69h.2L40,71.6h1.83l1.94-2Z"/><path class="cls-3" d="M40.27,53.6H18.6S7.51,55.45,2,55.54a1.4,1.4,0,0,0,.1.16c5.51.09,16.54-.1,16.54-.1l21.67,2,21.66-2,10.84,2h6.64v-4l-6.64,2H61.93Z"/><path class="cls-6" d="M79.16,49.26a5.26,5.26,0,0,0-2.26.24,11.54,11.54,0,0,0-2.55,1.73,4.4,4.4,0,0,1-5.47-.31,6.82,6.82,0,0,0-2.67-1.68,5.33,5.33,0,0,0-1.69-.15,4.29,4.29,0,0,0-1.66.38,17,17,0,0,0-2.51,1.79,4.07,4.07,0,0,1-1.3.56,4.75,4.75,0,0,1-1.46.08,3.77,3.77,0,0,1-1.37-.37A6.1,6.1,0,0,1,55,50.71a12.33,12.33,0,0,0-1.22-1,4.5,4.5,0,0,0-1.58-.64A6.21,6.21,0,0,0,50.52,49a4.94,4.94,0,0,0-1.66.51c-1,.53-1.65,1.32-2.46,1.8a4.2,4.2,0,0,1-2.76.5,4.6,4.6,0,0,1-2.47-1.31A5.45,5.45,0,0,0,38.25,49a6,6,0,0,0-1.74,0,4.47,4.47,0,0,0-1.61.6c-.95.58-1.58,1.36-2.41,1.79a4.11,4.11,0,0,1-1.35.43,5,5,0,0,1-1.45-.06,3.81,3.81,0,0,1-1.31-.51c-.4-.26-.76-.58-1.16-.9a6.83,6.83,0,0,0-1.32-.91,4.7,4.7,0,0,0-1.66-.45,5.79,5.79,0,0,0-1.71.1,4.39,4.39,0,0,0-1.54.68,18.87,18.87,0,0,1-2.4,1.77,4.49,4.49,0,0,1-2.88.25,6.29,6.29,0,0,1-2.47-1.52,4.94,4.94,0,0,0-6.1-.26,10.89,10.89,0,0,1-2.41,1.75,4.8,4.8,0,0,1-3,.12,4.1,4.1,0,0,1-1-.5l0,.22a3.58,3.58,0,0,0,.92.45,5.1,5.1,0,0,0,3.23,0A11.47,11.47,0,0,0,7.4,50.34a4.21,4.21,0,0,1,2.82-.79,4.23,4.23,0,0,1,2.66,1.11,6.82,6.82,0,0,0,2.67,1.68,5.33,5.33,0,0,0,1.69.15,4.22,4.22,0,0,0,1.65-.4,17.15,17.15,0,0,0,2.52-1.78,4.07,4.07,0,0,1,1.3-.56,5.08,5.08,0,0,1,1.46-.08,4.23,4.23,0,0,1,1.37.38,7.06,7.06,0,0,1,1.17.82,12.54,12.54,0,0,0,1.23,1,4.68,4.68,0,0,0,1.58.63,5.9,5.9,0,0,0,1.73.07A4.68,4.68,0,0,0,32.89,52c1-.54,1.65-1.33,2.46-1.8a4.16,4.16,0,0,1,2.76-.49,4.63,4.63,0,0,1,2.48,1.31,7.43,7.43,0,0,0,1.28.94,4.42,4.42,0,0,0,1.64.55,5.12,5.12,0,0,0,3.35-.63c1-.58,1.58-1.36,2.41-1.79a4.11,4.11,0,0,1,1.34-.42,5.47,5.47,0,0,1,1.46,0,3.72,3.72,0,0,1,1.3.53,10.37,10.37,0,0,1,1.16.9,6.88,6.88,0,0,0,1.33.9,4.7,4.7,0,0,0,1.66.45,5.8,5.8,0,0,0,1.71-.11,4.39,4.39,0,0,0,1.54-.68A18.55,18.55,0,0,1,63.16,50a3.71,3.71,0,0,1,1.41-.35,4.53,4.53,0,0,1,1.47.11,6.23,6.23,0,0,1,2.48,1.53,4.94,4.94,0,0,0,6.1.24A11.22,11.22,0,0,1,77,49.75a5,5,0,0,1,2.19-.27Z"/><path class="cls-4" d="M50.08,64.61a.85.85,0,1,0,0,1.69A.85.85,0,1,0,50.08,64.61Z"/><path class="cls-4" d="M68.24,64.61a.85.85,0,1,0,0,1.69A.85.85,0,1,0,68.24,64.61Z"/><path class="cls-4" d="M32.3,64.61a.85.85,0,1,0,0,1.69A.85.85,0,1,0,32.3,64.61Z"/><path class="cls-4" d="M41.26,61.17a.85.85,0,1,0,0-1.69A.85.85,0,1,0,41.26,61.17Z"/><path class="cls-4" d="M23.43,61.17a.85.85,0,1,0,0-1.69A.85.85,0,1,0,23.43,61.17Z"/><path class="cls-4" d="M59.37,61.17a.85.85,0,1,0,0-1.69A.85.85,0,1,0,59.37,61.17Z"/><path class="cls-4" d="M76.7,61.17a.85.85,0,1,0,0-1.69A.85.85,0,1,0,76.7,61.17Z"/><path class="cls-4" d="M14.08,64.61a.85.85,0,1,0,0,1.69A.85.85,0,1,0,14.08,64.61Z"/><path class="cls-7" d="M76.37,42.69c-.53-.86-1.09-1.73-1.64-2.57-.27-.41-.54-.82-.8-1.23l-5.05-5.17-.61-.62-.63.62L59.25,41.9l-8.44-8.13-.57-.56-.55.56-8.45,8.51-8.8-8.22-.19-.18-.18.18-8.8,8.22-8.46-8.51-.56-.57-.56.57L5.24,42.39,3.69,41a8.33,8.33,0,0,1-.08.86l1.33,1.35.3.31.32-.31,8.69-8,8.63,8.06.39.36.36-.36,8.62-8.68,8.63,8.68.36.36.38-.36,8.62-8,8.43,8.22.58.58.6-.58,8.43-8.12Z"/><path class="cls-3" d="M40.12,44.6H18.18c0,.7-11,1.36-16.51,1.45l-.12.17c5.55.08,16.63-.92,16.63-.92l21.94,2L62.05,45.6l11-1h5.09L73,47.33l-11-2.73Z"/><path class="cls-3" d="M40.08,31.6l21.67-2H70l-.06,2-8.19-2-21.67,2H18.42S9,31.29,4.27,31.36a2.2,2.2,0,0,0-.2.23c4.78.07,14.35,0,14.35-2Z"/><path class="cls-6" d="M70.45,27.82c0-.06,0-.12,0-.18s0-.15.07-.23a4.62,4.62,0,0,1-1.66-.93,6.71,6.71,0,0,0-2.67-1.68,5.34,5.34,0,0,0-1.69-.16,4.48,4.48,0,0,0-1.66.39,17.81,17.81,0,0,0-2.51,1.78,4.09,4.09,0,0,1-1.3.57,5.08,5.08,0,0,1-1.46.08,4,4,0,0,1-1.37-.37A7.13,7.13,0,0,1,55,26.27a12.33,12.33,0,0,0-1.22-1,4.5,4.5,0,0,0-1.58-.64,5.85,5.85,0,0,0-1.72-.08,4.93,4.93,0,0,0-1.66.5c-1,.54-1.65,1.33-2.46,1.8a4.14,4.14,0,0,1-2.76.5,4.52,4.52,0,0,1-2.47-1.3,5.45,5.45,0,0,0-2.92-1.49,5.64,5.64,0,0,0-1.74,0,4.29,4.29,0,0,0-1.61.6c-.95.58-1.58,1.36-2.41,1.79a3.87,3.87,0,0,1-1.35.42,4.69,4.69,0,0,1-1.45-.05,3.64,3.64,0,0,1-1.31-.52A12.83,12.83,0,0,1,27.22,26a6.42,6.42,0,0,0-1.32-.91,4.72,4.72,0,0,0-1.66-.46,6.16,6.16,0,0,0-1.71.11,4.39,4.39,0,0,0-1.54.68,18.87,18.87,0,0,1-2.4,1.77,4.56,4.56,0,0,1-2.88.25,6.2,6.2,0,0,1-2.47-1.53,5,5,0,0,0-4.46-1c-.14.16-.29.35-.44.55a4.23,4.23,0,0,1,1.88-.29,4.13,4.13,0,0,1,2.66,1.11,6.82,6.82,0,0,0,2.67,1.68,5.33,5.33,0,0,0,1.69.14,4.21,4.21,0,0,0,1.65-.39,17.93,17.93,0,0,0,2.52-1.78,4.07,4.07,0,0,1,1.3-.56,5.08,5.08,0,0,1,1.46-.08,3.78,3.78,0,0,1,1.37.38,6,6,0,0,1,1.17.82,12.49,12.49,0,0,0,1.23,1,4.69,4.69,0,0,0,1.58.64,6.26,6.26,0,0,0,1.73.07,5.14,5.14,0,0,0,1.64-.51c1-.54,1.65-1.33,2.46-1.8a4.16,4.16,0,0,1,2.76-.49,4.63,4.63,0,0,1,2.48,1.31,8.65,8.65,0,0,0,1.28.94,4.61,4.61,0,0,0,1.64.55,5.12,5.12,0,0,0,3.35-.63c1-.59,1.58-1.37,2.41-1.8a3.87,3.87,0,0,1,1.34-.41,5.09,5.09,0,0,1,1.46,0,3.7,3.7,0,0,1,1.3.52,13.43,13.43,0,0,1,1.16.9,6.49,6.49,0,0,0,1.33.91,4.7,4.7,0,0,0,1.66.45A6.16,6.16,0,0,0,59.23,28a4.78,4.78,0,0,0,1.54-.68,17.66,17.66,0,0,1,2.39-1.77,3.71,3.71,0,0,1,1.41-.35,4.82,4.82,0,0,1,1.47.1,6.46,6.46,0,0,1,2.48,1.53A4.31,4.31,0,0,0,70.45,27.82Z"/><path class="cls-4" d="M50.08,40.16a.85.85,0,1,0,0,1.7A.85.85,0,1,0,50.08,40.16Z"/><path class="cls-4" d="M68.24,40.16a.85.85,0,1,0,0,1.7A.85.85,0,1,0,68.24,40.16Z"/><path class="cls-4" d="M32.3,40.16a.85.85,0,1,0,0,1.7A.85.85,0,1,0,32.3,40.16Z"/><path class="cls-4" d="M41.26,36.73a.85.85,0,1,0,0-1.7A.85.85,0,1,0,41.26,36.73Z"/><path class="cls-4" d="M23.43,36.73a.85.85,0,1,0,0-1.7A.85.85,0,1,0,23.43,36.73Z"/><path class="cls-4" d="M4.76,36.73a.85.85,0,1,0,0-1.7A.85.85,0,1,0,4.76,36.73Z"/><path class="cls-4" d="M59.37,36.73a.85.85,0,1,0,0-1.7A.85.85,0,1,0,59.37,36.73Z"/><path class="cls-4" d="M77.39,33.5a.85.85,0,1,0,0-1.7A.85.85,0,1,0,77.39,33.5Z"/><path class="cls-4" d="M14.08,40.16a.85.85,0,1,0,0,1.7A.85.85,0,1,0,14.08,40.16Z"/><path class="cls-7" d="M76.71,18.56c.24-.25.46-.51.69-.77l-.11.1L68.88,9.27l-.61-.62-.63.62-8.39,8.18L50.81,9.32l-.57-.55-.55.55-8.45,8.52-8.8-8.23-.19-.17-.18.17-8.8,8.23-1.65-1.66-.12.08-.83.45,2.21,2.07.39.36.36-.36,8.62-8.69,8.63,8.69.36.36.38-.36,8.62-8L58.67,19l.58.57.6-.57,8.43-8.12Z"/><path class="cls-3" d="M72.65,20.6l-10.83,2-21.66-2H18.49S14.8,21,13,21.05l-.42.44a33.53,33.53,0,0,1,6,1.11H40.16l21.66-2,10.83,2h.71l.27-2Z"/><polygon class="cls-3" points="61.91 4.6 40.24 6.6 30.65 6.6 29.67 6.6 40.24 8.6 61.91 4.6 70.41 4.6 70.76 6.6 70.76 6.59 61.91 4.6"/><path class="cls-6" d="M72.39,3.51a2.05,2.05,0,0,0-.16-.38,4,4,0,0,1-.69,0A4.2,4.2,0,0,1,68.88,2,6.73,6.73,0,0,0,66.21.35l-.09,0c-.92.07-2,.14-3.12.2l-.14.06a17,17,0,0,0-2.51,1.78,4.09,4.09,0,0,1-1.3.57A5.47,5.47,0,0,1,57.59,3a3.78,3.78,0,0,1-1.37-.38A6.1,6.1,0,0,1,55,1.82c-.23-.19-.48-.4-.74-.6l-.92.12-.07,0,.06,0a11.7,11.7,0,0,1,1.16.9,7.4,7.4,0,0,0,1.33.91,4.49,4.49,0,0,0,1.66.44,5.79,5.79,0,0,0,1.71-.1,4.59,4.59,0,0,0,1.54-.69,19.54,19.54,0,0,1,2.39-1.77A3.71,3.71,0,0,1,64.57.73,4.82,4.82,0,0,1,66,.84a6.35,6.35,0,0,1,2.48,1.53A4.89,4.89,0,0,0,72.39,3.51Z"/><path class="cls-4" d="M50.08,15.72a.85.85,0,1,0,0,1.69A.85.85,0,1,0,50.08,15.72Z"/><path class="cls-4" d="M68.24,15.72a.85.85,0,1,0,0,1.69A.85.85,0,1,0,68.24,15.72Z"/><path class="cls-4" d="M32.3,15.72a.85.85,0,1,0,0,1.69A.85.85,0,1,0,32.3,15.72Z"/><path class="cls-4" d="M41.26,12.28a.85.85,0,1,0,0-1.69A.85.85,0,1,0,41.26,12.28Z"/><path class="cls-4" d="M23.43,12.28a.84.84,0,1,0,.05-1.68,6.5,6.5,0,0,0-.18,1.66Z"/><path class="cls-4" d="M59.37,12.28a.85.85,0,1,0,0-1.69A.85.85,0,1,0,59.37,12.28Z"/><path class="cls-2" d="M102.74,24.91a32.21,32.21,0,0,0-.51,3.66c1-1.77,2.1-3.55,3.11-5.35,1.73-3,3.41-6.14,4.94-9.29-2.15,2.87-4.15,5.8-6.1,8.75C103.69,23.42,103.22,24.16,102.74,24.91Z"/><path class="cls-2" d="M122.27,32.63a.91.91,0,0,0,1.14-.31c1.31-2.16,2.59-4.32,3.85-6.5l-.93-1.16q-1.89,2.89-3.7,5.82c-1.78-2.62-3.57-5.24-5.44-7.82-2.12-2.95-4.3-5.87-6.62-8.73,1.71,3.17,3.57,6.25,5.48,9.31s3.88,6.09,5.88,9.1A.88.88,0,0,0,122.27,32.63Z"/><path class="cls-9" d="M113.94,13.92l8.44,12.83.13.21.14-.21L125,23c-2.14-2.65-4.06-5.16-3.52-5.64,1.11-1,4.07,3.91,5.18,1.4a5.34,5.34,0,0,0-1-5l-3.64,0Z"/><path class="cls-2" d="M128,29.47c-1.73,3.06-3.41,6.14-4.94,9.29,2.15-2.87,4.15-5.8,6.1-8.75.19-.28.36-.57.55-.84a8.19,8.19,0,0,0-.8-1.27C128.56,28.42,128.25,28.94,128,29.47Z"/><path class="cls-1" d="M126,39.6h.42c2.76,0,5.54,0,8.28-.07l1.16,0a11.58,11.58,0,0,1-.47-3c-.13-1.62-2.85-3.33-4.46-4.85l-4.73,7.62Z"/><path class="cls-2" d="M117.13,29.45c-1.9-3.07-3.88-6.09-5.89-9.1a.78.78,0,0,0-.33-.29.91.91,0,0,0-1.14.31c-1.83,3-3.64,6-5.36,9.1q-1.12,2-2.2,4c0,.45.08.89.13,1.34,1.1-1.58,2.17-3.17,3.23-4.76,1.71-2.58,3.35-5.19,5-7.8,1.78,2.62,3.58,5.24,5.45,7.82,2.12,2.95,4.29,5.88,6.61,8.73C120.89,35.59,119,32.51,117.13,29.45Z"/><path class="cls-1" d="M103.08,39c2.69,0,5.39,0,8.06-.06l8.09-.14L110.8,25.94l-.14-.21-.13.21L102.9,38.22Z"/><path class="cls-2" d="M107.81,50c.85-1.6,1.68-3.2,2.47-4.82-1,1.34-2,2.7-2.93,4.07C107.5,49.45,107.65,49.7,107.81,50Z"/><path class="cls-9" d="M106.05,47.62l1.06-1.7.2-.32H106.2l-.65,1C105.71,47,105.88,47.28,106.05,47.62Z"/><path class="cls-2" d="M121.93,63.54a1,1,0,0,0,.34.28.91.91,0,0,0,1.14-.31c1.83-3,3.64-6,5.36-9.09s3.41-6.14,4.94-9.29c-2.15,2.86-4.15,5.79-6.1,8.75-1.71,2.57-3.35,5.18-5,7.8-1.78-2.63-3.57-5.24-5.44-7.82-2.12-3-4.3-5.88-6.62-8.73,1.71,3.16,3.57,6.25,5.48,9.31S119.93,60.53,121.93,63.54Z"/><path class="cls-9" d="M113.94,45.8l8.44,12.83.13.21.14-.21,7.89-12.71.2-.32h-.42c-2.76,0-5.54,0-8.28.07Z"/><path class="cls-2" d="M151.39,53.75s-.11-.1-.16-.15a2.75,2.75,0,0,0-.19.28c-1.71,2.57-3.35,5.18-5,7.8-1.78-2.63-3.57-5.24-5.44-7.82-2.12-3-4.3-5.88-6.62-8.73,1.71,3.16,3.57,6.25,5.48,9.31s3.88,6.09,5.88,9.1a1,1,0,0,0,.34.28.91.91,0,0,0,1.14-.31c1.76-2.9,3.5-5.82,5.17-8.77A2.87,2.87,0,0,0,151.39,53.75Z"/><path class="cls-9" d="M141.13,46c-.12-.34-.24-.65-.36-.94l-3.4.06L145.81,58l.13.2.14-.21,3.46-5.58C146.67,50.53,141.93,48.2,141.13,46Z"/><path class="cls-2" d="M134.79,51.54a.79.79,0,0,0-.34-.28.92.92,0,0,0-1.14.3c-1.83,3-3.63,6-5.36,9.1-1.12,2-2.22,4-3.27,6l.44.39c1.37-1.93,2.69-3.89,4-5.85,1.71-2.58,3.35-5.18,5-7.8,1.78,2.62,3.57,5.24,5.44,7.82,2.12,3,4.3,5.88,6.62,8.73-1.71-3.16-3.57-6.25-5.47-9.31S136.79,54.55,134.79,51.54Z"/><path class="cls-1" d="M128.38,70.16q3.17,0,6.3-.06l8.1-.14-8.44-12.83-.13-.21-.14.22L126.89,68.7C127.4,69.18,127.89,69.67,128.38,70.16Z"/><path class="cls-2" d="M111.24,51.54a.76.76,0,0,0-.33-.28.91.91,0,0,0-1.14.3l-.37.62c.25.33.5.66.76,1l.31.36a.75.75,0,0,0,.07-.12l.66,1a66,66,0,0,0,5.19,5.11Q113.87,55.48,111.24,51.54Z"/><path class="cls-2" d="M172.6,56.76c-1,1.64-2.09,3.27-3.11,4.92q-1.55-2.28-3.12-4.54l-1.41.52q1.89,3,3.83,5.88a1,1,0,0,0,.34.28.91.91,0,0,0,1.14-.31c.48-.79,1-1.59,1.43-2.39A13.59,13.59,0,0,0,172.6,56.76Z"/><path class="cls-6" d="M168.25,56.43l1,1.52.14.2.13-.21,1.43-2.31a6.5,6.5,0,0,0-1.4.34Z"/><path class="cls-2" d="M146.32,70c2.15-2.86,4.16-5.8,6.11-8.75l1.7-2.62a4.44,4.44,0,0,1-1.18-.83c-.56,1-1.13,1.94-1.68,2.91C149.54,63.72,147.86,66.8,146.32,70Z"/><path class="cls-2" d="M162.85,61.22c1.79,2.5,3.63,5,5.56,7.41l.16-.29c-1.46-2.61-3-5.16-4.58-7.7-.45-.73-.92-1.46-1.39-2.18-.47.14-.95.28-1.42.4C161.73,59.65,162.28,60.44,162.85,61.22Z"/><path class="cls-1" d="M166.09,69.39l-7-10.68a9.69,9.69,0,0,1-3,0l-6.58,10.6-.2.32h.43c2.76,0,5.54,0,8.28-.07Z"/><path class="cls-2" d="M150.49,85.92l3.06-2.73c1.25-2.26,2.46-4.55,3.59-6.87-2.15,2.86-4.15,5.8-6.1,8.75C150.85,85.35,150.67,85.64,150.49,85.92Z"/><path class="cls-2" d="M134,76.32c1.71,3.16,3.57,6.25,5.48,9.31,1.53,2.48,3.13,4.92,4.74,7.36a15.52,15.52,0,0,1,.88-1.53c-1.47-2.15-2.95-4.29-4.48-6.41C138.5,82.1,136.32,79.17,134,76.32Z"/><path class="cls-9" d="M145.94,88.84l.14-.21L154,75.92l.2-.32h-.42c-2.76,0-5.54,0-8.28.07l-8.1.14,8.44,12.83Z"/><path class="cls-2" d="M157.43,76.32c.44.81.89,1.62,1.35,2.42l.35-.28C158.58,77.74,158,77,157.43,76.32Z"/><path class="cls-6" d="M160.8,76.31l.38.58c.3-.22.58-.42.85-.6Z"/><path class="cls-2" d="M140.56,91.83c-1.15-1.86-2.35-3.71-3.55-5.55a26.84,26.84,0,0,1,.19,3c.73,1,1.47,2.1,2.22,3.13,1.12,1.57,2.26,3.12,3.43,4.67a6.54,6.54,0,0,1,.21-1.15Q141.83,93.88,140.56,91.83Z"/><path class="cls-9" d="M137,92.6a40.31,40.31,0,0,1-2,8.69l7.59-.14Z"/><path class="cls-2" d="M133.71,107.51c-1.28,1.72-2.51,3.46-3.71,5.21l-1.43,2.74c-1.66,3.2-3.36,6.5-4.8,9.84,1.7-2.82,3.39-5.64,5-8.5C130.5,113.74,132.18,110.66,133.71,107.51Z"/><path class="cls-2" d="M140.62,116.24c-2.12-2.95-4.3-5.88-6.62-8.73,1.71,3.17,3.57,6.25,5.48,9.31.93,1.51,1.89,3,2.86,4.5a9.08,9.08,0,0,0,1.17-1Q142.09,118.28,140.62,116.24Z"/><path class="cls-6" d="M144.54,118.41c.47-3.28-.09-6.81.75-8.78a2.31,2.31,0,0,0-.28-2.26l-7.64.13Z"/><path class="cls-2" d="M134.79,113.93a.81.81,0,0,0-.34-.29.91.91,0,0,0-1.14.31c-1.83,3-3.63,6-5.36,9.1s-3.41,6.14-4.94,9.28c2.15-2.86,4.15-5.79,6.1-8.75,1.71-2.57,3.35-5.18,5-7.79,1.68,2.47,3.38,4.94,5.14,7.38l1.15-.61C138.57,119.65,136.69,116.78,134.79,113.93Z"/><path class="cls-9" d="M134.34,119.56l-.13-.21-.14.22-7.89,12.71-.2.32h.61l3.14-2.88c.1-1.19.72-2,2.42-3.06,1.16-.71,3.15-1.56,5.2-2.52Z"/><path class="cls-2" d="M122.6,132.33c-.28-.52-.58-1.05-.87-1.58,0,.12-.08.24-.11.35C122,131.51,122.27,131.93,122.6,132.33Z"/></g></g></svg>